<svg width="14" height="14" viewBox="0 0 14 14" fill="none" xmlns="http://www.w3.org/2000/svg">
<g clip-path="url(#clip0_1_452)">
<mask id="mask0_1_452" style="mask-type:luminance" maskUnits="userSpaceOnUse" x="0" y="0" width="14" height="14">
<path d="M6.99829 12.8327C7.76447 12.8337 8.52331 12.6832 9.23117 12.39C9.93903 12.0968 10.582 11.6666 11.123 11.1241C11.6655 10.583 12.0957 9.9401 12.389 9.23224C12.6822 8.52437 12.8326 7.76554 12.8316 6.99935C12.8326 6.23317 12.6822 5.47434 12.3889 4.76648C12.0957 4.05862 11.6655 3.41568 11.123 2.8746C10.582 2.33211 9.93903 1.90189 9.23117 1.60868C8.52331 1.31546 7.76447 1.16503 6.99829 1.16602C6.2321 1.16504 5.47327 1.31549 4.76541 1.6087C4.05755 1.90192 3.41461 2.33212 2.87354 2.8746C2.33106 3.41568 1.90085 4.05862 1.60763 4.76648C1.31442 5.47434 1.16398 6.23317 1.16495 6.99935C1.16396 7.76554 1.31439 8.52437 1.60761 9.23224C1.90083 9.9401 2.33104 10.583 2.87354 11.1241C3.41461 11.6666 4.05755 12.0968 4.76541 12.39C5.47327 12.6832 6.2321 12.8337 6.99829 12.8327Z" fill="white" stroke="white" stroke-width="1.33333" stroke-linejoin="round"/>
<path d="M4.66495 6.99951L6.41495 8.74951L9.91495 5.24951" stroke="black" stroke-width="1.33333" stroke-linecap="round" stroke-linejoin="round"/>
</mask>
<g mask="url(#mask0_1_452)">
<path d="M-0.000579834 -0.000488281H13.9994V13.9995H-0.000579834V-0.000488281Z" fill="#2A4835"/>
</g>
</g>
<defs>
<clipPath id="clip0_1_452">
<rect width="14" height="14" fill="white"/>
</clipPath>
</defs>
</svg>
